<svg width="30" height="32" viewBox="0 0 30 32" fill="none" xmlns="http://www.w3.org/2000/svg">
<path fill-rule="evenodd" clip-rule="evenodd" d="M10.0277 6C7.73472 6 5.80843 7.72411 5.55522 10.0031L4.5 19.5H1.5C0.671573 19.5 0 20.1716 0 21V22.5C0 23.3284 0.671573 24 1.5 24H22.5C23.3284 24 24 23.3284 24 22.5V21C24 20.1716 23.3284 19.5 22.5 19.5H19.5L18.4448 10.0031C18.1916 7.72411 16.2653 6 13.9723 6H10.0277Z" fill="#4880FF"/>
<rect opacity="0.3" x="9" y="25.5" width="6" height="6" rx="2.25" fill="#FF0000"/>
<path opacity="0.173224" fill-rule="evenodd" clip-rule="evenodd" d="M21 18C25.9706 18 30 13.9706 30 9C30 4.02944 25.9706 0 21 0C16.0294 0 12 4.02944 12 9C12 13.9706 16.0294 18 21 18Z" fill="#F93C65" fill-opacity="0.613691"/>
<path fill-rule="evenodd" clip-rule="evenodd" d="M21 17C25.4183 17 29 13.4183 29 9C29 4.58172 25.4183 1 21 1C16.5817 1 13 4.58172 13 9C13 13.4183 16.5817 17 21 17Z" fill="#F93C65"/>
<path d="M20.912 13.12C19.864 13.12 19.052 12.752 18.476 12.016C17.908 11.28 17.624 10.248 17.624 8.92C17.624 7.488 17.944 6.38 18.584 5.596C19.232 4.812 20.124 4.42 21.26 4.42C21.708 4.42 22.152 4.504 22.592 4.672C23.032 4.832 23.408 5.064 23.72 5.368L23.216 6.52C22.92 6.248 22.604 6.048 22.268 5.92C21.932 5.784 21.588 5.716 21.236 5.716C20.54 5.716 20.008 5.96 19.64 6.448C19.272 6.936 19.088 7.664 19.088 8.632V8.98C19.256 8.54 19.528 8.196 19.904 7.948C20.28 7.7 20.712 7.576 21.2 7.576C21.688 7.576 22.12 7.692 22.496 7.924C22.872 8.156 23.168 8.476 23.384 8.884C23.6 9.292 23.708 9.76 23.708 10.288C23.708 10.832 23.588 11.32 23.348 11.752C23.116 12.176 22.788 12.512 22.364 12.76C21.948 13 21.464 13.12 20.912 13.12ZM20.828 11.896C21.26 11.896 21.608 11.756 21.872 11.476C22.144 11.188 22.28 10.812 22.28 10.348C22.28 9.884 22.144 9.508 21.872 9.22C21.608 8.932 21.26 8.788 20.828 8.788C20.396 8.788 20.044 8.932 19.772 9.22C19.508 9.508 19.376 9.884 19.376 10.348C19.376 10.812 19.508 11.188 19.772 11.476C20.044 11.756 20.396 11.896 20.828 11.896Z" fill="white"/>
</svg>
